Land_normalized_Motion_pl04
version=1
nRows=20
nColumns=43
inDegrees=yes
endheader
time		pelvis_tilt		pelvis_list		pelvis_rotation		pelvis_tx		pelvis_ty		pelvis_tz		hip_flexion_r		hip_adduction_r		hip_rotation_r		knee_angle_r		ankle_angle_r		subtalar_angle_r		mtp_angle_r		hip_flexion_l		hip_adduction_l		hip_rotation_l		knee_angle_l		ankle_angle_l		subtalar_angle_l		mtp_angle_l		lumbar_extension		lumbar_bending		lumbar_rotation		neck_flexion		neck_lateral_bending		neck_rotation		arm_flex_r		arm_add_r		arm_rot_r		elbow_flex_r		pro_sup_r		wrist_flex_r		wrist_dev_r		hand_finger_flex_r		arm_flex_l		arm_add_l		arm_rot_l		elbow_flex_l		pro_sup_l		wrist_flex_l		wrist_dev_l		hand_finger_flex_l		
3.038207		3.466054		-0.935532		93.155560		-0.024446		0.660600		0.493433		59.246132		-2.530548		-7.478067		-79.560886		4.349210		-5.518791		28.628135		60.866452		-9.184143		-1.493147		-85.825116		22.270665		1.865489		25.528796		-32.251908		4.896251		5.327806		-8.102211		1.613121		-4.179612		-28.114627		-21.367843		-19.625606		39.180775		117.915096		-17.286654		-14.919613		-33.805245		-42.411748		-22.773755		-25.062963		64.117687		134.292831		-32.186363		-16.678405		-30.138554		
3.041035		3.139363		-1.395568		92.992007		-0.023710		0.650756		0.492506		61.170227		-2.428924		-6.571107		-81.795311		3.494596		-6.754105		28.790516		62.933528		-8.853078		-1.307777		-88.328035		21.582303		0.989320		24.467400		-32.302581		4.330228		5.432219		-7.495256		1.868850		-4.272822		-26.177159		-21.456317		-19.523316		39.222668		118.063647		-17.522167		-15.253095		-33.673496		-39.929679		-23.205258		-24.465396		64.116295		134.493104		-32.983880		-17.002108		-30.274957		
3.043864		3.045445		-1.047295		92.857950		-0.023300		0.642946		0.491376		62.096366		-2.239616		-6.044333		-83.883590		3.283111		-6.815544		28.824803		64.005110		-8.687268		-0.876818		-90.653187		21.548317		0.866004		24.321725		-33.280150		4.079830		5.522675		-7.034532		1.984232		-4.189273		-24.038787		-21.696287		-19.375722		39.485893		118.115262		-17.405293		-15.256009		-33.576050		-37.384776		-23.352649		-24.087331		64.402695		134.539105		-32.862790		-16.988397		-30.192488		
3.046692		2.874860		-0.874266		92.597724		-0.022440		0.635083		0.490424		63.261679		-1.922066		-5.332495		-85.954520		3.002962		-6.967212		28.895473		65.229315		-8.676436		-0.695459		-92.856565		20.816954		0.505435		24.031860		-34.233897		3.615913		5.893173		-5.574367		2.312192		-4.238432		-21.900610		-21.861050		-19.277511		39.596593		118.238998		-17.357966		-15.327411		-33.436241		-34.582497		-23.785568		-23.452116		64.503406		134.802601		-32.925262		-17.097721		-30.135211		
3.049520		2.754446		-0.565861		92.383485		-0.021808		0.627524		0.489350		64.244361		-1.617822		-4.704125		-87.995419		2.760933		-6.992571		28.939126		66.232094		-8.525687		-0.334149		-94.985008		20.529054		0.215708		23.880025		-35.225371		3.250973		6.064430		-4.843581		2.508172		-4.269007		-19.803356		-22.024346		-19.200429		39.996491		118.323834		-17.338534		-15.439600		-33.347691		-32.036215		-24.004568		-22.981902		64.867762		134.969338		-32.955653		-17.186450		-30.097249		
3.052348		2.561515		-0.340658		92.013620		-0.021295		0.620537		0.488439		65.325297		-1.214760		-3.920234		-89.918726		2.941169		-6.967938		28.999217		67.138798		-8.403974		-0.100435		-96.799776		19.925519		-0.222225		23.694058		-36.287015		2.756511		6.532853		-3.308422		2.829227		-4.322535		-17.584748		-22.233912		-19.169098		40.085988		118.427138		-17.293993		-15.478459		-33.199702		-28.998751		-24.174296		-22.279766		64.927398		135.223300		-32.951586		-17.204561		-30.011623		
3.055177		2.239075		0.052568		91.665755		-0.020502		0.613790		0.487472		66.237589		-0.854339		-3.122990		-91.858768		3.237623		-6.616303		29.089008		67.800469		-8.292577		-0.109152		-98.593400		19.312415		-0.926542		23.467097		-37.519411		2.092654		6.883541		-1.846263		3.164807		-4.612950		-15.522006		-22.320641		-19.323432		40.498505		118.552746		-17.442677		-15.706512		-33.041110		-26.106726		-24.569786		-21.426312		65.118894		135.627186		-33.191597		-17.308957		-29.924542		
3.058005		1.538306		0.756499		91.332850		-0.019839		0.607897		0.486531		66.821230		-0.714631		-2.094160		-93.810399		3.799041		-5.513780		29.297384		67.903768		-8.127127		-0.764442		-100.168810		18.655556		-2.220980		23.054912		-39.125500		1.087196		7.172804		-0.393942		3.456601		-5.391151		-13.716149		-22.170576		-19.951586		41.252241		118.737152		-17.924597		-16.221741		-32.710421		-22.992181		-25.167486		-20.186560		65.320240		136.277438		-34.055976		-17.313672		-29.714393		
3.060833		1.430450		1.084020		91.239034		-0.019443		0.601562		0.485419		67.678493		-0.450714		-1.620848		-95.566779		4.260822		-5.404708		29.349529		68.542305		-7.954803		-0.461210		-101.712929		18.672523		-2.367524		22.999091		-40.136304		0.805914		7.184967		0.330311		3.539673		-5.362354		-11.454650		-22.346310		-19.799310		41.647555		118.810777		-17.833244		-16.246009		-32.554486		-20.285976		-25.152622		-19.731323		65.647044		136.349934		-34.012635		-17.196270		-29.542711		
3.063662		1.089005		1.556755		91.220064		-0.019116		0.595757		0.484467		68.376561		-0.385409		-1.066723		-97.310757		4.891457		-4.607864		29.459540		68.932322		-7.695956		-0.505564		-103.123861		18.393289		-2.592863		22.860997		-41.434083		0.315229		7.121325		1.658227		3.855701		-5.636123		-9.304829		-22.449259		-19.719890		42.207944		118.920275		-18.030955		-16.393022		-32.399730		-17.468478		-25.469502		-18.832149		66.006651		136.634638		-34.350686		-17.147297		-29.281911		
3.066490		0.783527		2.039676		91.224571		-0.018698		0.589889		0.483442		69.028401		-0.313427		-0.584126		-99.024058		5.300105		-3.880447		29.556226		69.324050		-7.455595		-0.492759		-104.542327		18.265371		-2.805817		22.753141		-42.655774		-0.130286		6.959799		2.532397		4.069629		-5.906814		-7.216228		-22.495753		-19.640842		42.934771		119.005068		-18.257513		-16.586450		-32.293654		-14.829229		-25.689057		-18.117148		66.503003		136.849485		-34.732417		-17.103591		-29.071498		
3.069318		0.690249		2.245829		91.193411		-0.018362		0.584110		0.482416		69.901400		-0.141152		-0.237414		-100.565312		5.645552		-3.736572		29.590575		69.951726		-7.309356		-0.220177		-105.846430		18.218600		-2.719332		22.729593		-43.552120		-0.360514		6.814096		3.422969		4.164564		-5.888174		-4.787589		-22.674893		-19.255340		43.319678		119.082183		-18.162740		-16.600688		-32.216575		-12.166948		-25.716729		-17.547737		66.807007		136.922590		-34.683597		-17.032224		-28.929336		
3.072146		0.616346		2.513427		91.200896		-0.017921		0.578126		0.481338		70.687995		-0.001928		0.032959		-102.116873		5.716123		-3.545255		29.611434		70.595395		-7.214436		0.080977		-107.253856		18.243475		-2.651542		22.724425		-44.419929		-0.568543		6.586297		3.933512		4.258491		-5.907785		-2.524023		-22.774932		-18.901153		43.974784		119.163650		-18.129426		-16.723502		-32.186850		-9.756550		-25.800854		-17.093135		67.352593		136.999153		-34.687002		-17.060318		-28.857502		
3.074975		0.142793		2.808975		91.424147		-0.018215		0.573243		0.480795		71.404424		-0.344985		0.568201		-103.548174		6.103876		-2.545097		29.703583		70.967635		-6.663814		0.086220		-108.260143		17.913439		-1.758858		22.652591		-45.619507		-1.009727		6.128748		5.653817		4.818796		-6.281417		-0.101172		-23.069115		-18.097294		44.414919		119.341446		-18.482835		-16.857702		-32.374867		-6.916646		-26.246979		-15.745381		67.694681		137.133766		-35.504366		-16.888179		-28.793166		
3.077803		0.117985		3.004091		91.373330		-0.017585		0.567458		0.479734		72.200778		-0.138702		0.808763		-104.961381		6.109220		-2.411287		29.717982		71.620312		-6.681435		0.436417		-109.552999		18.051233		-1.679210		22.662613		-46.367757		-1.200660		5.872564		6.015836		4.804274		-6.252983		2.236645		-23.070153		-17.678944		45.114708		119.428309		-18.403724		-16.983458		-32.364907		-4.539132		-26.262815		-15.357001		68.181604		137.155591		-35.467462		-16.858303		-28.721377		
3.080631		0.011654		3.048636		91.355345		-0.017462		0.562355		0.478944		73.081791		-0.069375		1.144282		-106.197206		6.208956		-2.029896		29.745751		72.255933		-6.602028		0.668503		-110.550532		18.014844		-1.111220		22.666030		-47.098994		-1.400057		5.617471		7.128827		4.915787		-6.224425		4.862779		-23.333088		-16.822240		45.436020		119.658530		-18.189842		-17.013879		-32.369648		-1.867463		-26.448859		-14.436878		68.397898		137.225962		-35.439674		-16.746816		-28.587750		
3.083460		-0.126180		3.166463		91.382812		-0.017311		0.557057		0.478069		73.875559		-0.054038		1.484412		-107.464882		6.275293		-1.518942		29.772573		72.846914		-6.487480		0.915251		-111.639890		18.099220		-0.466470		22.688545		-47.824075		-1.615349		5.276220		7.930023		5.091845		-6.260768		7.292368		-23.509146		-15.985689		46.011247		119.937009		-18.074655		-17.123652		-32.457384		0.648820		-26.659884		-13.573552		68.796011		137.282590		-35.540375		-16.647302		-28.485875		
3.086288		-0.368860		3.305508		91.440862		-0.017368		0.551802		0.477195		74.650353		-0.144027		1.910829		-108.734441		6.523793		-0.668936		29.818278		73.346034		-6.335958		1.024738		-112.673364		18.394714		0.488724		22.741106		-48.537734		-1.879546		4.882685		8.576819		5.302023		-6.344236		9.640512		-23.691520		-15.129215		46.647630		120.330090		-18.067310		-17.152883		-32.768163		3.179086		-26.892366		-12.520337		69.249640		137.291309		-35.910985		-16.356383		-28.299572		
3.089116		-0.521671		3.383965		91.444068		-0.017204		0.546514		0.476272		75.446281		-0.123596		2.277960		-109.935542		6.717848		0.022148		29.858593		73.893326		-6.330477		1.147076		-113.660220		18.710088		1.130207		22.789502		-49.132565		-2.090543		4.546260		9.116066		5.378577		-6.354118		11.995943		-23.766176		-14.381797		47.319229		120.676419		-17.964113		-17.178125		-33.018590		5.682157		-27.076887		-11.580809		69.639745		137.343142		-36.074054		-16.107625		-28.034810		
3.091944		-0.561999		3.375964		91.431978		-0.016926		0.541189		0.475357		76.274009		-0.035004		2.548121		-111.053694		6.740346		0.521754		29.879636		74.540592		-6.409686		1.310979		-114.613398		18.933419		1.432181		22.828292		-49.588187		-2.215388		4.302585		9.628081		5.367910		-6.276161		14.357662		-23.879583		-13.635786		47.955453		120.962705		-17.648297		-17.255702		-33.049128		8.205660		-27.195083		-10.732126		69.963368		137.501863		-35.795431		-16.022367		-27.728139		
